<?xml version="1.0" encoding="UTF-8"?>
<svg width="392px" height="200px" viewBox="0 0 392 200" version="1.1" xmlns="http://www.w3.org/2000/svg" xmlns:xlink="http://www.w3.org/1999/xlink">
    <!-- Generator: Sketch 48.1 (47250) - http://www.bohemiancoding.com/sketch -->
    <title>Logos/IPL/Corporate White</title>
    <desc>Created with Sketch.</desc>
    <defs>
        <polygon id="path-1" points="0.0102053528 0.208539683 80.6867983 0.208539683 80.6867983 97.7771429 0.0102053528 97.7771429"></polygon>
        <polygon id="path-3" points="0.00222546634 0.16971795 89.4376454 0.16971795 89.4376454 96.7554921 0.00222546634 96.7554921"></polygon>
    </defs>
    <g id="Global-Symbols" stroke="none" stroke-width="1" fill="none" fill-rule="evenodd">
        <g id="Logos/IPL/Corporate-White">
            <g id="Page-1">
                <g id="Group-43" transform="translate(45.145174, 34.982222)">
                    <path d="M105.289006,0.166126984 C104.894145,3.57120635 104.629632,6.95469841 104.494515,10.3162857 C104.359397,13.6781905 104.288818,17.0832698 104.288818,20.526127 C104.288818,23.9258095 104.348588,27.314381 104.462087,30.6762857 C104.586713,34.0381905 104.85663,37.4216825 105.289006,40.8267619 L92.4811296,40.8267619 C92.9513388,37.4648571 93.2323835,34.0867619 93.3296681,30.7032698 C93.4269528,27.3197778 93.4806819,23.9258095 93.4806819,20.526127 C93.4806819,17.0832698 93.4215481,13.6781905 93.3026446,10.3162857 C93.1837411,6.95469841 92.9135059,3.57120635 92.4811296,0.166126984 L105.289006,0.166126984 Z" id="Fill-2" fill="#FFFFFF"></path>
                    <path d="M120.918202,0.166126984 C124.4036,4.27279365 127.980879,8.2604127 131.639545,12.1350159 C135.303934,16.0093016 139.054163,19.8407302 142.891185,23.634381 C142.815201,19.6842222 142.669592,15.7613651 142.453404,11.8705714 C142.237216,7.97977778 141.875101,4.07850794 141.367376,0.166126984 L149.181307,0.166126984 C148.868152,3.13946032 148.603321,6.16136508 148.386815,9.23184127 C148.176032,12.3023175 148.062533,15.3835873 148.062533,18.470254 C148.062533,22.2258095 148.095279,25.9546984 148.154731,29.6508889 C148.213865,33.342 148.279039,37.0708889 148.359792,40.8267619 L142.485832,40.8267619 C138.568058,36.4448571 134.638838,32.1442222 130.699763,27.9188254 C126.765456,23.693746 122.717651,19.5277143 118.567156,15.4213651 C118.448252,16.9483492 118.394205,18.470254 118.394205,19.9972381 C118.394205,23.5156508 118.480681,27.0070794 118.659354,30.4712063 C118.831986,33.930254 119.194102,37.3835873 119.745381,40.8267619 L112.103766,40.8267619 C112.53646,37.189619 112.817505,33.5794603 112.957709,30.0016825 C113.092827,26.4188254 113.163088,22.797873 113.163088,19.1175556 C113.163088,15.9124762 113.103636,12.7499365 112.984733,9.642 C112.871234,6.53374603 112.714815,3.37692063 112.514523,0.166126984 L120.918202,0.166126984 Z" id="Fill-4" fill="#FFFFFF"></path>
                    <path d="M167.865209,20.8190476 C167.865209,22.6971429 167.870614,24.655873 167.891915,26.6847619 C167.913852,28.7190476 167.984113,30.6780952 168.097294,32.5504762 C168.135445,33.2952381 168.216197,33.9209524 168.335419,34.4336508 C168.454004,34.9409524 168.648574,35.3403175 168.924531,35.631746 C169.194449,35.9285714 169.578183,36.1336508 170.070011,36.2469841 C170.556434,36.3657143 171.193871,36.4250794 171.977871,36.4250794 C174.171863,36.4250794 176.030763,35.9447619 177.559977,34.9895238 C179.089508,34.0292063 180.332272,32.7879365 181.288904,31.2609524 C182.250942,29.7390476 182.964045,28.0285714 183.434572,26.1288889 C183.904463,24.2349206 184.158484,22.3463492 184.201722,20.4685714 C184.277388,18.5095238 184.109842,16.6047619 183.699402,14.748254 C183.288327,12.8866667 182.59112,11.2355556 181.612869,9.78920635 C180.634935,8.3431746 179.348934,7.17746032 177.765673,6.29777778 C176.17669,5.4184127 174.269148,4.98126984 172.037005,4.98126984 L167.865209,4.98126984 L167.865209,20.8190476 Z M173.036875,0.167619048 C174.874475,0.167619048 176.706351,0.216507937 178.527419,0.313333333 C180.348804,0.41047619 182.14253,0.713015873 183.904463,1.22539683 C188.016807,2.39650794 191.070147,4.3984127 193.06957,7.2368254 C195.06931,10.0752381 196.06918,13.6044444 196.06918,17.824127 C196.06918,21.7365079 195.371973,25.1577778 193.982964,28.0933333 C192.588869,31.0288889 190.697222,33.4730159 188.314384,35.4266667 C185.9201,37.3853968 183.109972,38.8587302 179.878277,39.8568254 C176.6469,40.8552381 173.209826,41.351746 169.567373,41.351746 C167.492285,41.351746 165.260142,41.2977778 162.871899,41.1790476 C160.477933,41.0603175 158.289028,40.6879365 156.289605,40.0619048 C156.640911,37.207619 156.84629,34.3526984 156.905741,31.4980952 C156.964875,28.6434921 156.992217,25.7673016 156.992217,22.8752381 C156.992217,19.0761905 156.943256,15.2933333 156.84629,11.5212698 C156.749005,7.74412698 156.46796,3.96126984 155.992346,0.167619048 L173.036875,0.167619048 Z" id="Fill-6" fill="#FFFFFF"></path>
                    <path d="M212.990514,0.166126984 C212.59597,3.57120635 212.331458,6.95469841 212.196022,10.3162857 C212.060904,13.6781905 211.990325,17.0832698 211.990325,20.526127 C211.990325,23.9258095 212.050413,27.314381 212.168999,30.6762857 C212.28822,34.0381905 212.558455,37.4216825 212.990514,40.8267619 L200.182637,40.8267619 C200.647441,37.4648571 200.933891,34.0867619 201.031493,30.7032698 C201.12846,27.3197778 201.182189,23.9258095 201.182189,20.526127 C201.182189,17.0832698 201.123055,13.6781905 201.00447,10.3162857 C200.885248,6.95469841 200.609926,3.57120635 200.182637,0.166126984 L212.990514,0.166126984 Z" id="Fill-8" fill="#FFFFFF"></path>
                    <path d="M229.206183,24.1624444 L238.663461,24.1624444 L233.734689,11.8430794 L229.206183,24.1624444 Z M241.430034,0.165619048 C243.034913,4.58498413 244.704967,8.96688889 246.450368,13.3106984 C248.196088,17.6494286 250.006663,21.9716508 251.887182,26.2726032 C252.984019,28.7386349 254.119007,31.1722857 255.29151,33.5789524 C256.469736,35.985619 257.647643,38.4030794 258.820464,40.8259365 L245.191072,40.8259365 C244.445541,38.8294286 243.662177,36.8868889 242.835257,34.9875238 C242.013742,33.0932381 241.214164,31.1668889 240.430482,29.2081587 L227.676652,29.2081587 C226.974041,31.1237143 226.255533,33.0446667 225.530985,34.9605397 C224.807072,36.8760952 224.169635,38.8294286 223.623442,40.8259365 L215.51734,40.8259365 C219.040889,33.7084762 222.39117,26.5478413 225.563731,19.3545079 C226.936208,16.1814921 228.287066,13.013873 229.616941,9.84625397 C230.94618,6.67895238 232.183539,3.45196825 233.318845,0.165619048 L241.430034,0.165619048 Z" id="Fill-10" fill="#FFFFFF"></path>
                    <path d="M269.925255,0.166126984 C273.410653,4.27279365 276.982844,8.2604127 280.646916,12.1350159 C284.310987,16.0093016 288.061216,19.8407302 291.898238,23.634381 C291.816849,19.6842222 291.67124,15.7613651 291.460457,11.8705714 C291.238864,7.97977778 290.876431,4.07850794 290.374111,0.166126984 L298.188359,0.166126984 C297.869482,3.13946032 297.604651,6.16136508 297.393868,9.23184127 C297.177998,12.3023175 297.069904,15.3835873 297.069904,18.470254 C297.069904,22.2258095 297.096927,25.9546984 297.156061,29.6508889 C297.215831,33.342 297.285774,37.0708889 297.361758,40.8267619 L291.48748,40.8267619 C287.569388,36.4448571 283.645891,32.1442222 279.706815,27.9188254 C275.772509,23.693746 271.724385,19.5277143 267.573891,15.4213651 C267.455305,16.9483492 267.401576,18.470254 267.401576,19.9972381 C267.401576,23.5156508 267.487733,27.0070794 267.661002,30.4712063 C267.839039,33.930254 268.201154,37.3835873 268.752434,40.8267619 L261.110818,40.8267619 C261.543513,37.189619 261.824557,33.5794603 261.959039,30.0016825 C262.099879,26.4188254 262.164736,22.797873 262.164736,19.1175556 C262.164736,15.9124762 262.110689,12.7499365 261.992103,9.642 C261.872882,6.53374603 261.716145,3.37692063 261.521576,0.166126984 L269.925255,0.166126984 Z" id="Fill-12" fill="#FFFFFF"></path>
                    <path d="M92.4820198,92.2900635 C92.9140782,88.8906984 93.1843134,85.5072063 93.3032169,82.1399048 C93.4221204,78.778 93.48189,75.3945079 93.48189,71.989746 C93.48189,68.5522857 93.4221204,65.1472063 93.3032169,61.7802222 C93.1843134,58.4183175 92.9140782,55.0348254 92.4820198,51.6351429 L109.640047,51.6351429 C111.396258,51.6351429 113.076803,51.7808571 114.660064,52.0722857 C116.249047,52.3637143 117.637738,52.8922857 118.832177,53.6586349 C120.026617,54.4195873 120.967035,55.4557778 121.653115,56.7672063 C122.339512,58.078 122.679691,59.7510159 122.679691,61.7802222 C122.679691,63.8145079 122.328385,65.6167302 121.626091,67.1814921 C120.918075,68.7465714 119.950633,70.0472063 118.718678,71.0830794 C117.481319,72.1192698 116.032858,72.9018095 114.368527,73.430381 C112.703879,73.953873 110.893621,74.2183175 108.931713,74.2183175 C108.461822,74.2183175 107.991931,74.202127 107.521403,74.1643492 C107.051512,74.1214921 106.580985,74.0675238 106.111094,73.986254 L104.819369,71.4608571 C106.111094,71.3853016 107.170098,71.0830794 107.991931,70.5541905 C108.813128,70.025619 109.450565,69.3510159 109.899155,68.5306984 C110.35315,67.710381 110.655814,66.7716508 110.81255,65.713873 C110.969287,64.6564127 111.04527,63.5824444 111.04527,62.4868889 C111.04527,60.1773651 110.607171,58.585619 109.726523,57.7059365 C108.845556,56.8208571 107.305215,56.3840317 105.111223,56.3840317 C104.722085,56.3840317 104.446763,56.4053016 104.290026,56.4433968 L104.290026,76.5116508 C104.290026,79.1665714 104.370779,81.8106984 104.527515,84.4278413 C104.678847,87.0506984 104.938591,89.6732381 105.289897,92.2900635 L92.4820198,92.2900635 Z" id="Fill-14" fill="#FFFFFF"></path>
                    <path d="M140.13272,72.6965079 C140.251623,72.6965079 140.451279,72.7073016 140.748538,72.7238095 C141.040392,72.7450794 141.245771,72.755873 141.364674,72.755873 C142.537177,72.755873 143.537047,72.4809524 144.358562,71.9304762 C145.185482,71.3853968 145.839133,70.6838095 146.330961,69.8203175 C146.817385,68.9571429 147.174095,67.9914286 147.390283,66.9174603 C147.601067,65.8380952 147.714248,64.7965079 147.714248,63.7768254 C147.714248,61.8234921 147.244356,60.2098413 146.303938,58.9365079 C145.358432,57.668254 143.85052,57.0314286 141.775432,57.0314286 L140.13272,57.0314286 L140.13272,72.6965079 Z M152.556544,75.8050794 C153.124038,76.4685714 153.680405,77.1971429 154.231685,77.9742857 C154.783282,78.7568254 155.291007,79.5228571 155.761216,80.2622222 C156.231107,81.0069841 156.60435,81.5949206 156.87999,82.0215873 C158.01466,83.748254 159.138838,85.4536508 160.257612,87.1587302 C161.370663,88.8584127 162.499928,90.5688889 163.634916,92.2904762 L149.357278,92.2904762 C147.790231,89.2412698 146.163415,86.2895238 144.477466,83.4352381 C144.045407,82.6904762 143.607308,81.9352381 143.159036,81.1742857 C142.710445,80.4079365 142.207808,79.695873 141.661933,79.031746 C141.424126,78.7190476 141.207938,78.4761905 141.013368,78.2980952 C140.818799,78.1253968 140.52154,78.0174603 140.13272,77.9742857 C140.213472,80.4022222 140.294543,82.7984127 140.397232,85.1622222 C140.494517,87.5311111 140.699896,89.9053968 141.013368,92.2904762 L128.200405,92.2904762 C128.632463,88.8907937 128.908103,85.5073016 129.027007,82.14 C129.140505,78.7780952 129.205362,75.3946032 129.205362,71.9898413 C129.205362,68.552381 129.140505,65.147619 129.027007,61.7803175 C128.908103,58.4180952 128.632463,55.0349206 128.200405,51.6352381 L146.595792,51.6352381 C148.238822,51.6352381 149.843701,51.8079365 151.411065,52.1587302 C152.977793,52.5149206 154.383016,53.0977778 155.615289,53.9234921 C156.847243,54.7434921 157.836304,55.8174603 158.581836,57.1447619 C159.327685,58.4777778 159.695522,60.1234921 159.695522,62.0768254 C159.695522,65.3631746 158.86288,67.9749206 157.198549,69.9069841 C155.534218,71.8438095 153.113229,73.2257143 149.94639,74.0457143 C150.14096,74.1212698 150.32472,74.1914286 150.502757,74.2507937 C150.676025,74.3101587 150.843571,74.3749206 151.000308,74.455873 C151.470199,74.6879365 151.98905,75.1409524 152.556544,75.8050794 Z" id="Fill-16" fill="#FFFFFF"></path>
                    <path d="M193.953588,92.2900635 C191.051262,92.0960952 188.154659,91.9773651 185.258373,91.9395873 C182.356047,91.9014921 179.475976,91.8802222 176.617206,91.8802222 L173.915171,91.8802222 C173.056141,91.8802222 172.175175,91.918 171.272589,91.9989524 C170.569978,92.0745079 169.862279,92.133873 169.159668,92.1716508 C168.451334,92.2148254 167.748722,92.2526032 167.041024,92.2900635 C167.4734,88.8906984 167.748722,85.5072063 167.862539,82.1399048 C167.981442,78.778 168.040894,75.3945079 168.040894,71.989746 C168.040894,68.5522857 167.981442,65.1472063 167.862539,61.7802222 C167.748722,58.4183175 167.4734,55.0348254 167.041024,51.6351429 C168.257082,51.6351429 169.451204,51.662127 170.624025,51.7214921 C171.801932,51.7808571 172.996372,51.8078413 174.206708,51.8078413 C177.109034,51.8078413 179.978296,51.8024444 182.820852,51.7808571 C185.658004,51.7592698 188.527901,51.7106984 191.424505,51.6351429 L191.424505,57.9649841 C189.505835,57.4199048 187.592888,57.042127 185.695836,56.8208571 C183.794017,56.610381 181.848323,56.5027619 179.848901,56.5027619 C179.692164,56.5027619 179.53511,56.5135556 179.378691,56.5294286 C179.221955,56.5510159 179.070623,56.562127 178.908482,56.562127 L178.908482,69.1189524 C179.108774,69.1567302 179.25947,69.1729206 179.378691,69.1729206 L179.908034,69.1729206 C181.550746,69.1729206 183.307593,69.0973651 185.166176,68.9408571 C187.025394,68.7843492 188.781605,68.6116508 190.430039,68.4119683 L190.430039,74.3964127 C188.781605,74.202127 187.133488,74.0348254 185.490776,73.8945079 C183.847746,73.7595873 182.17801,73.6948254 180.497147,73.6948254 C180.221825,73.6948254 179.956995,73.7002222 179.702974,73.722127 C179.448952,73.7433968 179.184122,73.7491111 178.908482,73.7491111 L178.908482,79.3230794 C178.908482,80.5805397 178.930101,81.8106984 178.967934,83.0249841 C179.005449,84.233873 179.12467,85.4478413 179.31924,86.6567302 C180.416394,86.9319683 181.550746,87.0668889 182.728972,87.0668889 C184.728394,87.0668889 186.695707,86.9319683 188.635678,86.6567302 C190.575966,86.3865714 192.499723,86.1116508 194.423798,85.8364127 L193.953588,92.2900635 Z" id="Fill-18" fill="#FFFFFF"></path>
                    <path d="M211.342842,51.6329841 C213.342264,56.2898095 215.341687,60.9253651 217.335705,65.5390159 C219.335127,70.1526667 221.529119,74.6910794 223.917998,79.1482222 C226.149823,74.6533016 228.268149,70.1256825 230.262485,65.566 C232.261908,61.0117143 234.082657,56.3656825 235.725687,51.6329841 L245.128918,51.6329841 C245.442709,58.4809206 245.966647,65.2745714 246.712496,72.0199683 C247.458345,78.7707619 248.436279,85.5266349 249.652337,92.2882222 L236.963364,92.2882222 C236.963364,88.1494921 236.82316,84.0374286 236.552607,79.9685397 C236.276967,75.8999683 235.90436,71.7986984 235.433833,67.6491746 C233.440133,71.6799683 231.537677,75.7485397 229.732824,79.8552063 C227.933058,83.961873 226.247108,88.106 224.679744,92.2882222 L217.044169,92.2882222 C215.244402,88.1494921 213.439231,84.0374286 211.640101,79.9685397 C209.834929,75.8999683 207.938196,71.8364762 205.938774,67.7679048 C205.619578,71.1726667 205.376367,74.5345714 205.203416,77.8586984 C205.025379,81.1828254 204.938586,84.5444127 204.938586,87.9494921 L204.938586,90.1780635 C204.938586,90.8850476 204.960522,91.5866349 204.998355,92.2882222 L197.362144,92.2882222 C198.064756,89.2393333 198.63225,86.1796508 199.064626,83.1091746 C199.496685,80.0386984 199.864522,76.9628254 200.177677,73.8707619 C200.572221,70.1526667 200.923526,66.4564762 201.236681,62.7815556 C201.550472,59.1066349 201.706891,55.3888571 201.706891,51.6329841 L211.342842,51.6329841 Z" id="Fill-20" fill="#FFFFFF"></path>
                    <path d="M267.515043,51.6329841 C267.120182,55.0380635 266.855669,58.4215556 266.720552,61.7834603 C266.585116,65.1453651 266.514855,68.5504444 266.514855,71.9929841 C266.514855,75.3926667 266.574624,78.7758413 266.688123,82.1434603 C266.806709,85.5050476 267.082667,88.8885397 267.515043,92.2882222 L254.707166,92.2882222 C255.177376,88.9263175 255.45842,85.553619 255.555705,82.1704444 C255.652989,78.7869524 255.706719,75.3926667 255.706719,71.9929841 C255.706719,68.5504444 255.647585,65.1453651 255.528681,61.7834603 C255.409778,58.4215556 255.134456,55.0380635 254.707166,51.6329841 L267.515043,51.6329841 Z" id="Fill-22" fill="#FFFFFF"></path>
                    <path d="M301.359013,92.2900635 C298.456687,92.0960952 295.560084,91.9773651 292.658076,91.9395873 C289.761472,91.9014921 286.886806,91.8802222 284.02263,91.8802222 L281.320596,91.8802222 C280.461566,91.8802222 279.580282,91.918 278.677696,91.9989524 C277.969998,92.0745079 277.267704,92.133873 276.55937,92.1716508 C275.856758,92.2148254 275.154147,92.2526032 274.446449,92.2900635 C274.878825,88.8906984 275.154147,85.5072063 275.267964,82.1399048 C275.386867,78.778 275.446001,75.3945079 275.446001,71.989746 C275.446001,68.5522857 275.386867,65.1472063 275.267964,61.7802222 C275.154147,58.4183175 274.878825,55.0348254 274.446449,51.6351429 C275.662507,51.6351429 276.856629,51.662127 278.029449,51.7214921 C279.207039,51.7808571 280.401479,51.8078413 281.617537,51.8078413 C284.514458,51.8078413 287.38372,51.8024444 290.225959,51.7808571 C293.063428,51.7592698 295.933326,51.7106984 298.829612,51.6351429 L298.829612,57.9649841 C296.91126,57.4199048 295.003717,57.042127 293.101261,56.8208571 C291.199123,56.610381 289.25343,56.5027619 287.259412,56.5027619 C287.097589,56.5027619 286.945939,56.5135556 286.783798,56.5294286 C286.632784,56.5510159 286.470643,56.562127 286.313589,56.562127 L286.313589,69.1189524 C286.513881,69.1567302 286.670617,69.1729206 286.783798,69.1729206 L287.313141,69.1729206 C288.961894,69.1729206 290.7127,69.0973651 292.577323,68.9408571 C294.436541,68.7843492 296.187029,68.6116508 297.835146,68.4119683 L297.835146,74.3964127 C296.187029,74.202127 294.543999,74.0348254 292.895883,73.8945079 C291.25317,73.7595873 289.58884,73.6948254 287.902572,73.6948254 C287.62725,73.6948254 287.362419,73.7002222 287.108398,73.722127 C286.854377,73.7433968 286.589547,73.7491111 286.313589,73.7491111 L286.313589,79.3230794 C286.313589,80.5805397 286.335208,81.8106984 286.378763,83.0249841 C286.416596,84.233873 286.529777,85.4478413 286.729751,86.6567302 C287.821819,86.9319683 288.961894,87.0668889 290.134397,87.0668889 C292.133819,87.0668889 294.101132,86.9319683 296.041102,86.6567302 C297.981391,86.3865714 299.910552,86.1116508 301.829222,85.8364127 L301.359013,92.2900635 Z" id="Fill-24" fill="#FFFFFF"></path>
                    <path d="M317.986044,72.6965079 C318.099543,72.6965079 318.310645,72.7073016 318.601863,72.7238095 C318.893717,72.7450794 319.099413,72.755873 319.217999,72.755873 C320.390502,72.755873 321.390372,72.4809524 322.21761,71.9304762 C323.039125,71.3853968 323.692776,70.6838095 324.184604,69.8203175 C324.676432,68.9571429 325.02742,67.9914286 325.243608,66.9174603 C325.460114,65.8380952 325.56789,64.7965079 325.56789,63.7768254 C325.56789,61.8234921 325.097681,60.2098413 324.152176,58.9365079 C323.217162,57.668254 321.703845,57.0314286 319.634479,57.0314286 L317.986044,57.0314286 L317.986044,72.6965079 Z M330.415592,75.8050794 C330.982768,76.4685714 331.53977,77.1971429 332.085327,77.9742857 C332.636607,78.7568254 333.144649,79.5228571 333.614541,80.2622222 C334.08475,81.0069841 334.457675,81.5949206 334.733632,82.0215873 C335.867984,83.748254 336.992163,85.4536508 338.110937,87.1587302 C339.224306,88.8584127 340.353253,90.5688889 341.488559,92.2904762 L327.21092,92.2904762 C325.643874,89.2412698 324.017058,86.2895238 322.336513,83.4352381 C321.903819,82.6904762 321.460633,81.9352381 321.012679,81.1742857 C320.558366,80.4079365 320.061133,79.695873 319.515576,79.031746 C319.277451,78.7190476 319.061581,78.4761905 318.867011,78.2980952 C318.672124,78.1253968 318.375183,78.0174603 317.986044,77.9742857 C318.067115,80.4022222 318.148186,82.7984127 318.250557,85.1622222 C318.34816,87.5311111 318.553538,89.9053968 318.867011,92.2904762 L306.059134,92.2904762 C306.491511,88.8907937 306.767151,85.5073016 306.880332,82.14 C306.999553,78.7780952 307.059005,75.3946032 307.059005,71.9898413 C307.059005,68.552381 306.999553,65.147619 306.880332,61.7803175 C306.767151,58.4180952 306.491511,55.0349206 306.059134,51.6352381 L324.449435,51.6352381 C326.092147,51.6352381 327.70243,51.8079365 329.269477,52.1587302 C330.831436,52.5149206 332.236341,53.0977778 333.468614,53.9234921 C334.706291,54.7434921 335.689629,55.8174603 336.43516,57.1447619 C337.181327,58.4777778 337.554252,60.1234921 337.554252,62.0768254 C337.554252,65.3631746 336.716523,67.9749206 335.057597,69.9069841 C333.387543,71.8438095 330.971958,73.2257143 327.799715,74.0457143 C327.994285,74.1212698 328.178362,74.1914286 328.3564,74.2507937 C328.52935,74.3101587 328.696896,74.3749206 328.85395,74.455873 C329.329564,74.6879365 329.842693,75.1409524 330.415592,75.8050794 Z" id="Fill-26" fill="#FFFFFF"></path>
                    <path d="M119.390992,143.757397 C116.488984,143.563111 113.592062,143.444381 110.695777,143.406921 C107.799173,143.368825 104.918784,143.347238 102.060014,143.347238 L99.3579796,143.347238 C98.455394,143.347238 97.5531264,143.385016 96.6559455,143.465968 C95.9479293,143.541524 95.2507225,143.600889 94.5643251,143.638667 C93.8782456,143.681841 93.1864435,143.719619 92.4841499,143.757397 C92.9108036,140.352317 93.1864435,136.974222 93.3002602,133.606921 C93.4188457,130.245333 93.4782975,126.861841 93.4782975,123.456762 C93.4782975,120.019619 93.4188457,116.614222 93.3002602,113.247238 C93.1864435,109.885333 92.9108036,106.502159 92.4841499,103.097079 L105.291709,103.097079 C104.897165,106.502159 104.632335,109.885333 104.497217,113.247238 C104.356695,116.614222 104.291838,120.019619 104.291838,123.456762 C104.291838,124.595492 104.297243,125.728825 104.318862,126.861841 C104.340481,127.995175 104.345885,129.12819 104.345885,130.266921 C104.345885,131.556444 104.367504,132.867873 104.410742,134.195492 C104.442852,135.52819 104.562074,136.833905 104.762048,138.123746 C105.345438,138.323429 105.912932,138.436444 106.464212,138.479937 C107.010087,138.517714 107.582667,138.533905 108.166693,138.533905 C110.166116,138.533905 112.13311,138.398984 114.073399,138.123746 C116.01337,137.853905 117.942849,137.578667 119.861201,137.303429 L119.390992,143.757397 Z" id="Fill-28" fill="#FFFFFF"></path>
                    <path d="M150.942891,143.757397 C148.046287,143.563111 145.143961,143.444381 142.247676,143.406921 C139.34535,143.368825 136.465278,143.347238 133.606508,143.347238 L130.904474,143.347238 C130.045126,143.347238 129.164159,143.385016 128.261891,143.465968 C127.55928,143.541524 126.851264,143.600889 126.148652,143.638667 C125.440636,143.681841 124.738024,143.719619 124.030326,143.757397 C124.462702,140.352317 124.738024,136.974222 124.857246,133.606921 C124.970745,130.245333 125.029878,126.861841 125.029878,123.456762 C125.029878,120.019619 124.970745,116.614222 124.857246,113.247238 C124.738024,109.885333 124.462702,106.502159 124.030326,103.097079 C125.246384,103.097079 126.440506,103.129143 127.618414,103.188825 C128.791234,103.24819 129.985674,103.274857 131.201732,103.274857 C134.098336,103.274857 136.967598,103.264063 139.804749,103.24819 C142.647306,103.226286 145.516886,103.177714 148.413489,103.097079 L148.413489,109.432 C146.494819,108.886921 144.587594,108.50946 142.685139,108.287873 C140.788406,108.077397 138.837307,107.969778 136.843607,107.969778 C136.686871,107.969778 136.529817,107.980571 136.37308,107.996762 C136.211257,108.018349 136.054521,108.029143 135.903189,108.029143 L135.903189,120.580571 C136.097758,120.623746 136.254495,120.639937 136.37308,120.639937 L136.897337,120.639937 C138.545771,120.639937 140.296577,120.564381 142.1612,120.407873 C144.020101,120.251365 145.776311,120.073587 147.419341,119.878984 L147.419341,125.863746 C145.776311,125.669143 144.127877,125.501841 142.47976,125.366921 C140.83673,125.226921 139.172717,125.162159 137.486449,125.162159 C137.211127,125.162159 136.945979,125.167238 136.691958,125.189143 C136.437937,125.210413 136.173106,125.216127 135.903189,125.216127 L135.903189,130.790095 C135.903189,132.042159 135.919403,133.277714 135.957236,134.486603 C136.000474,135.700889 136.113972,136.914857 136.313629,138.123746 C137.405379,138.398984 138.545771,138.533905 139.718274,138.533905 C141.717697,138.533905 143.685009,138.398984 145.62498,138.123746 C147.565268,137.853905 149.49443,137.578667 151.412782,137.303429 L150.942891,143.757397 Z" id="Fill-30" fill="#FFFFFF"></path>
                    <path d="M166.62998,127.094762 L176.092345,127.094762 L171.153082,114.775397 L166.62998,127.094762 Z M178.848426,103.097937 C180.453623,107.517302 182.134168,111.899206 183.874483,116.243016 C185.614162,120.581746 187.430142,124.904286 189.310661,129.210317 C190.407816,131.670952 191.542804,134.104603 192.720712,136.51127 C193.893533,138.917937 195.071122,141.335397 196.244261,143.758254 L182.615187,143.758254 C181.869338,141.761746 181.085974,139.819206 180.264141,137.919841 C179.437857,136.025873 178.637961,134.098889 177.853961,132.140476 L165.100449,132.140476 C164.397837,134.056032 163.67933,135.976984 162.954782,137.892857 C162.230869,139.808413 161.598519,141.761746 161.047557,143.758254 L152.941455,143.758254 C156.464686,136.640794 159.815284,129.485556 162.987528,122.286825 C164.360005,119.119206 165.711181,115.946508 167.040738,112.778571 C168.375382,109.61127 169.607336,106.384286 170.742642,103.097937 L178.848426,103.097937 Z" id="Fill-32" fill="#FFFFFF"></path>
                    <path d="M233.728522,124.982603 C233.457969,127.017206 233.236694,129.040698 233.079957,131.059111 C232.928625,133.071492 232.847555,135.095302 232.847555,137.129587 C232.847555,138.031175 232.874578,138.894032 232.93403,139.73054 C232.993164,140.567048 233.123195,141.43054 233.317764,142.320698 C232.258442,142.703873 231.042702,143.04419 229.67563,143.335302 C228.302835,143.621333 226.881398,143.853079 225.416723,144.031492 C223.946643,144.20419 222.499136,144.328 221.06689,144.403873 C219.640048,144.479111 218.354046,144.522603 217.218741,144.522603 C214.241385,144.522603 211.420129,144.079746 208.756246,143.200381 C206.092045,142.320698 203.762617,141.031175 201.763195,139.326095 C199.769177,137.626095 198.191003,135.554032 197.034715,133.109587 C195.878108,130.664825 195.305527,127.859111 195.305527,124.685778 C195.305527,121.054349 195.98652,117.843556 197.358997,115.069905 C198.731792,112.290857 200.568755,109.97054 202.882286,108.114032 C205.189459,106.258159 207.875279,104.849587 210.934024,103.888952 C213.987364,102.933714 217.218741,102.453397 220.623386,102.453397 C222.585294,102.453397 224.573907,102.572127 226.589544,102.804508 C228.60518,103.041968 230.475208,103.70546 232.19899,104.801016 L230.25902,112.722603 L229.145969,112.722603 C228.005576,110.882603 226.648677,109.506413 225.06033,108.583873 C223.47707,107.666413 221.607042,107.202286 219.450883,107.202286 C217.181226,107.202286 215.257151,107.687683 213.690423,108.648635 C212.128463,109.608952 210.863763,110.861016 209.901725,112.409587 C208.945093,113.958159 208.259331,115.695937 207.848574,117.638476 C207.432093,119.575937 207.232119,121.52927 207.232119,123.488 C207.232119,125.29054 207.415879,127.152127 207.783717,129.067683 C208.161728,130.994349 208.794079,132.742286 209.696346,134.334349 C210.598932,135.920698 211.782562,137.221333 213.252642,138.241333 C214.722403,139.261333 216.532661,139.768317 218.68882,139.768317 C219.27221,139.768317 219.850831,139.747048 220.418325,139.708952 C220.990906,139.671492 221.547909,139.590222 222.093466,139.47181 C222.136703,139.002286 222.152917,138.538159 222.152917,138.068635 L222.152917,136.601016 C222.152917,134.647365 222.088061,132.710222 221.947221,130.78927 C221.812739,128.873397 221.607042,126.941651 221.33172,124.982603 L233.728522,124.982603 Z" id="Fill-34" fill="#FFFFFF"></path>
                    <path d="M252.706154,103.097365 C252.154874,107.128159 251.841401,111.17546 251.766054,115.244349 C251.69007,119.312921 251.652555,123.38181 251.652555,127.444984 C251.652555,129.010063 251.727903,130.510381 251.884639,131.934825 C252.041376,133.364667 252.4143,134.622127 253.003731,135.723079 C253.587121,136.818317 254.441064,137.698 255.55952,138.361492 C256.672889,139.025302 258.191293,139.359905 260.109963,139.359905 C262.536357,139.359905 264.379043,138.858 265.632616,137.859905 C266.886508,136.866889 267.794498,135.593238 268.367079,134.050063 C268.934891,132.501175 269.248045,130.779905 269.307497,128.885937 C269.366631,126.986254 269.393655,125.162444 269.393655,123.398 C269.393655,119.95546 269.275069,116.555778 269.042667,113.188159 C268.80486,109.826254 268.491387,106.464667 268.102566,103.097365 L275.857363,103.097365 C275.506057,106.383714 275.20848,109.670063 274.976396,112.956413 C274.819977,115.422444 274.711565,117.861492 274.652114,120.289429 C274.59298,122.712603 274.565956,125.162444 274.565956,127.623079 C274.565956,133.413238 273.241804,137.654508 270.598903,140.352603 C267.956639,143.051016 263.714264,144.400222 257.878138,144.400222 C255.451744,144.400222 253.19226,144.20054 251.122894,143.784667 C249.042401,143.374825 247.242316,142.640857 245.713421,141.588476 C244.18389,140.531016 242.989768,139.111651 242.130102,137.331016 C241.265985,135.550381 240.838696,133.294508 240.838696,130.558635 C240.838696,129.188159 240.860315,127.849746 240.89783,126.538635 C240.935981,125.227206 240.952195,123.889111 240.952195,122.518635 C240.952195,119.269746 240.876529,116.037683 240.72011,112.810698 C240.563374,109.578317 240.287416,106.345937 239.898277,103.097365 L252.706154,103.097365 Z" id="Fill-36" fill="#FFFFFF"></path>
                    <path d="M309.523804,143.757397 C306.621478,143.563111 303.724875,143.444381 300.828271,143.406921 C297.931986,143.368825 295.051596,143.347238 292.192508,143.347238 L289.490474,143.347238 C288.626357,143.347238 287.745073,143.385016 286.842487,143.465968 C286.140193,143.541524 285.437582,143.600889 284.729884,143.638667 C284.021549,143.681841 283.318938,143.719619 282.616644,143.757397 C283.043616,140.352317 283.318938,136.974222 283.433073,133.606921 C283.551658,130.245333 283.610792,126.861841 283.610792,123.456762 C283.610792,120.019619 283.551658,116.614222 283.433073,113.247238 C283.318938,109.885333 283.043616,106.502159 282.616644,103.097079 C283.827298,103.097079 285.02142,103.129143 286.199645,103.188825 C287.372148,103.24819 288.56627,103.274857 289.782328,103.274857 C292.679249,103.274857 295.548511,103.264063 298.39075,103.24819 C301.228219,103.226286 304.098117,103.177714 307.000125,103.097079 L307.000125,109.432 C305.081455,108.886921 303.168508,108.50946 301.271457,108.287873 C299.369319,108.077397 297.418539,107.969778 295.424203,107.969778 C295.267785,107.969778 295.11073,107.980571 294.953994,107.996762 C294.797575,108.018349 294.640839,108.029143 294.484103,108.029143 L294.484103,120.580571 C294.678672,120.623746 294.835408,120.639937 294.953994,120.639937 L295.47825,120.639937 C297.126685,120.639937 298.877491,120.564381 300.742114,120.407873 C302.601332,120.251365 304.35182,120.073587 306.000255,119.878984 L306.000255,125.863746 C304.35182,125.669143 302.70879,125.501841 301.060673,125.366921 C299.417961,125.226921 297.75363,125.162159 296.067363,125.162159 C295.792041,125.162159 295.532297,125.167238 295.278276,125.189143 C295.019168,125.210413 294.759742,125.216127 294.484103,125.216127 L294.484103,130.790095 C294.484103,132.042159 294.505721,133.277714 294.543554,134.486603 C294.581387,135.700889 294.694568,136.914857 294.894542,138.123746 C295.992015,138.398984 297.126685,138.533905 298.304592,138.533905 C300.29861,138.533905 302.265922,138.398984 304.205893,138.123746 C306.146182,137.853905 308.075343,137.578667 309.9991,137.303429 L309.523804,143.757397 Z" id="Fill-38" fill="#FFFFFF"></path>
                    <g id="Group-42" transform="translate(0.000000, 66.349206)">
                        <mask id="mask-2" fill="white">
                            <use xlink:href="#path-1"></use>
                        </mask>
                        <g id="Clip-41"></g>
                        <path d="M79.3099296,38.861873 C78.9799247,39.1745714 78.9799247,39.2072698 78.6505557,39.5361587 C78.0776571,40.146 78.2452029,40.146 77.4993538,40.7234603 C77.1429612,41.0796508 76.9321778,41.2094921 76.3103189,41.7434603 C75.6026206,42.4015556 75.1216019,42.650127 74.2301437,43.3621905 C73.3870099,44.058381 72.7384454,44.6574286 71.7872175,45.434254 C71.4740626,45.6717143 70.5012159,46.2869524 68.7230683,47.1885397 C67.9829418,47.6412381 67.0587374,48.1110794 66.0537804,47.8844127 C66.9074057,47.0694921 67.7289207,45.9793333 68.9665979,44.9650476 C70.7333002,43.5352063 73.6028801,43.0872698 73.4785719,40.5564762 C73.4194381,39.2825079 72.9597204,38.1548889 72.4844243,37.0110794 C72.7870878,36.8113968 73.1329888,36.6113968 73.3650732,36.433619 C73.9058615,36.0180635 74.6189645,35.6726667 75.2188866,35.3596508 C76.0725119,34.9333016 76.9426693,34.8580635 77.8993019,35.0520317 C78.8448071,35.2409206 79.3906822,36.1367937 79.8284633,36.9513968 C80.0230326,37.3186984 80.1635549,37.6799683 80.0716749,37.9444127 C79.650426,38.3167937 79.5312045,38.5434603 79.3099296,38.861873 M49.5707049,43.7456825 C47.2689369,42.9358413 44.4425946,41.7110794 41.1193376,42.434254 C41.0862735,42.5044127 41.0271397,42.526 41.0271397,42.6231429 C41.2379231,42.3745714 43.5562232,42.6390159 42.902254,42.7148889 C41.075782,42.8171111 39.0385265,42.9088571 37.6333035,43.3621905 C40.308314,40.793619 46.1879961,41.3548889 49.3061924,43.0872698 C49.8088298,43.3406032 49.8844957,43.3786984 50.3114673,43.6320317 C50.6303448,44.3174286 50.2303968,43.9609206 49.5707049,43.7456825 M34.7799377,82.6250476 C34.6880577,83.510127 34.8772224,84.0875873 33.8560513,83.9310794 C32.2454495,83.6774286 32.2079345,82.4199683 31.5485606,81.4539365 C30.7864973,80.3479048 30.3757398,79.5599683 30.3757398,79.5599683 C30.7486644,78.6158413 30.9648526,78.9720317 31.8941437,78.7831429 C32.7805152,78.5888571 33.769576,78.1894921 34.2178485,78.1894921 C34.6772483,78.1894921 34.4556555,77.8710794 34.7529142,79.6625079 C35.0126579,81.1733016 34.8934365,81.6593333 34.7799377,82.6250476 M12.7853359,94.4913968 C12.088447,95.2196508 10.9264357,95.1929841 8.25142514,95.074254 C5.58722401,94.950127 5.76017453,94.858381 4.23604801,94.1996508 C2.9608558,93.6602857 2.54469359,93.8548889 2.83654761,90.4980635 C3.14461573,86.958381 5.91659303,87.6113968 8.92701314,88.5609206 C11.9857577,89.5161587 12.0073765,89.8291746 12.1478988,90.4710794 C12.2992305,91.1133016 12.9042394,93.0126667 12.9042394,93.0126667 C12.9042394,93.0126667 13.2447358,94.0056825 12.7853359,94.4913968 M80.6391689,37.841873 C80.5959312,37.3237778 80.3097998,36.5793333 80.1041032,36.2609206 C79.6071883,35.5374286 78.8988542,34.9548889 78.0395062,34.733619 C76.0079734,34.194254 73.9541859,35.5269524 72.4087585,36.8167937 C72.1006903,36.0828254 71.7983448,35.3326667 71.5926482,34.5393333 L70.0901405,31.350127 C69.5229645,29.974254 68.4095955,29.1431429 68.1177414,27.4974286 C65.0806157,23.0399683 63.6591786,16.9907619 59.0769434,14.0609206 C58.1416117,12.906 57.1636782,11.7837778 55.9857706,10.866 C54.7480934,8.76187302 52.2838663,7.97361905 51.5599539,5.51298413 C51.3920902,4.9628254 51.5599539,4.20726984 51.2789093,3.64092063 C51.0951494,3.2628254 50.5762978,3.13901587 50.0466368,2.69107937 C49.6358793,2.34568254 49.2683594,1.82219048 48.9332678,1.56853968 C48.2417836,1.07203175 47.4148639,0.667269841 46.7446806,0.208539683 C39.3628088,8.26536508 31.0675419,14.8161587 22.464207,19.6729841 C22.6425622,19.9155238 22.810108,20.1371111 22.9614397,20.3526667 C23.7505265,21.5291746 24.8257447,22.5437778 24.9986952,24.0167937 C25.0743611,24.6644127 25.3878339,25.2361587 25.4689045,25.8621905 C25.5229515,26.3806032 25.733735,26.7904444 25.9445184,27.2545714 C26.1823254,27.8155238 26.1228736,28.3929841 26.171516,28.9869524 C26.2036263,29.4669524 26.4255371,29.8717143 26.5390358,30.3304444 C26.5876782,30.5409206 26.4741794,30.7675873 26.5390358,30.9723492 C26.5819556,31.1180635 26.7440967,31.1615556 26.7984616,31.2907619 C26.938666,31.6256825 26.8684049,32.154254 26.9656895,32.5212381 C27.0954024,33.1850476 27.3169953,33.8596508 27.2632662,34.5558413 C27.1710683,35.9802857 27.4791364,37.4586984 27.5926352,38.8726667 C27.7872045,41.0148889 27.8466563,43.1520317 27.7872045,45.294254 C27.7385622,46.4056825 27.6628964,47.5120317 27.5548023,48.6072698 C27.5010732,49.1631429 27.4304941,49.7244127 27.3602329,50.2802857 C27.3061859,50.6202857 27.3278047,51.6726667 27.1008071,51.9206032 C25.9120902,53.2266349 25.4851186,54.9533016 24.3717496,56.2374286 C23.5451478,57.1980635 22.2858517,57.9539365 21.2697674,58.7685397 C20.6647585,59.270127 20.0594316,59.7720317 19.4432954,60.2685397 C18.9784908,60.6520317 18.3680772,60.9647302 18.0272629,61.4771111 C17.7786466,61.8552063 17.6276328,62.330127 17.4273408,62.7453651 C16.9682589,63.7329841 16.4440026,64.7098095 15.9467698,65.6920317 C15.5954641,66.3771111 15.3468477,67.0948889 15.012074,67.7802857 C14.7040058,68.3844127 14.2932483,68.8863175 13.9203238,69.4367937 C13.477138,70.1002857 13.3474251,70.893619 12.747503,71.481873 C12.3100399,71.9244127 11.8506401,72.4586984 11.5641908,72.8523492 C10.6940334,73.9748889 10.3102994,74.4120317 9.51072117,75.5885397 C8.71622968,76.7755238 7.99199935,78.1733016 7.06239027,79.1606032 C6.24659789,80.0348889 5.08458654,80.7364762 4.14957275,81.5025079 C3.16623455,82.3069524 2.2531575,82.8571111 1.25328727,83.8879048 C0.615532198,85.1558413 0.761459205,86.6453651 0.480414599,87.9945714 C0.361511111,88.5555238 0.0102053528,88.981873 0.0102053528,89.5917143 C0.0102053528,90.2606032 0.339892295,91.0107619 0.480414599,91.7390159 C0.74492717,93.0993333 0.420962855,95.0148889 1.56644217,96.018381 C2.91761817,97.1948889 5.12782417,97.777746 6.82458329,97.777746 C9.66205288,97.5079048 11.796593,97.3028254 14.6931964,97.0923492 C15.4390456,96.757746 15.2606903,95.2793333 15.2333489,95.0361587 C15.2012386,94.5939365 14.9523043,94.3402857 15.2498809,93.9031429 C19.0703708,89.197746 22.1777577,83.7961587 26.9119604,80.0079048 C27.5710164,80.9466349 28.3871267,81.810127 29.1650861,82.8196508 C29.8676976,83.7044127 30.5594998,85.0698095 31.4293392,85.6364762 C32.4508282,86.3215556 33.569284,86.8717143 34.9964438,86.9526667 C36.5685768,86.121873 35.8068315,79.5548889 37.3579815,76.9967937 C38.5034608,76.7755238 39.3678955,76.2469524 40.4650504,75.9717143 C47.4689109,68.9294921 55.3318015,61.7523492 62.8433862,54.9266349 C63.9351364,53.9386984 65.0593148,52.6812381 66.1402556,52.017746 C68.1288688,50.7929841 70.5066206,50.3666349 72.5384714,49.2926667 C75.8458323,45.4021905 81.2499004,39.1856825 80.6391689,37.841873" id="Fill-40" fill="#FFFFFF" mask="url(#mask-2)"></path>
                    </g>
                </g>
                <g id="Group-49" transform="translate(7.312247, 0.061587)" fill="#FFFFFF">
                    <path d="M13.2243251,36.6515873 C7.33923828,44.8268254 2.9512545,53.4284127 0.00060405515,61.9814286 C2.74587575,55.3065079 6.43665272,48.6798413 11.1816649,42.4039683 C12.8297817,40.2185714 14.5535643,38.1519048 16.3371166,36.1877778 C15.2129382,36.3712698 14.1215059,36.538254 13.2243251,36.6515873" id="Fill-45"></path>
                    <path d="M96.6133437,7.46352381 C75.3372496,-8.56314286 39.4433388,3.04415873 15.7246365,33.3114603 C16.7515303,33.2413016 18.0267225,33.1549524 19.313042,33.0524127 C40.5942229,11.7105079 69.1819277,5.00288889 87.1884938,18.5800317 C107.60524,33.9587619 106.68644,69.5578095 85.1401109,98.1038413 C74.0509301,112.781619 59.6547062,122.715905 45.5175903,126.827968 C62.0811004,122.964476 79.5360688,111.373048 92.8627971,93.7330476 C116.548753,62.3701905 118.229616,23.7492381 96.6133437,7.46352381" id="Fill-47"></path>
                </g>
                <g id="Group-56" transform="translate(0.000000, 23.236190)">
                    <g id="Group-53">
                        <mask id="mask-4" fill="white">
                            <use xlink:href="#path-3"></use>
                        </mask>
                        <g id="Clip-52"></g>
                        <path d="M52.5009447,42.5939048 C52.7387517,43.6085079 52.9275984,44.644381 53.0410972,45.7021587 C54.1490615,45.4107302 55.2029788,44.860254 56.1542067,44.4662857 C56.1758255,44.4504127 56.1971264,44.4339048 56.2241499,44.4288254 C56.4943851,44.2453333 56.678145,44.099619 56.8294767,44.040254 C56.8348814,42.9770794 56.7213826,41.9193016 56.5160039,40.8888254 C56.4295286,40.8888254 56.3430534,40.9050159 56.2565781,40.9266032 C55.0840753,41.6224762 53.6518287,42.1135873 52.4901353,42.4859683 C52.4901353,42.5183492 52.5009447,42.5507302 52.5009447,42.5939048 M51.8415708,42.0488254 C51.6794297,41.2881905 51.5118839,40.284381 51.1173405,39.6151746 C51.1011264,39.5989841 51.0957217,39.572 51.0795075,39.5612063 C50.322849,39.8040635 49.5556989,40.0577143 48.7936357,40.284381 C48.3018076,40.4516825 47.7937655,40.624381 47.2752318,40.7646984 C46.9995919,41.5688254 46.7131426,42.3726349 46.4537168,43.1821587 C46.4212886,43.2685079 46.4158839,43.3386667 46.3996697,43.419619 C46.8209187,43.360254 47.2424856,43.2951746 47.7022034,43.203746 C48.8909204,42.9608889 50.0691458,42.6370794 51.2200298,42.2700952 C51.436218,42.2107302 51.6307873,42.124381 51.8415708,42.0488254 M55.6458466,38.1310476 C55.5488798,38.0773968 55.435381,38.072 55.3110728,38.1151746 C55.272922,38.1259683 55.2462164,38.1364444 55.2191929,38.1475556 C55.1813599,38.1799365 55.1489317,38.1853333 55.1219082,38.1853333 C54.3922732,38.4713651 53.6518287,38.7034286 53.0306057,38.9297778 C52.6681726,39.0542222 52.2955659,39.1618413 51.9388555,39.2805714 C51.8631896,39.3132698 51.8037379,39.3345397 51.7331588,39.3615238 C51.7496908,39.572 51.7713097,39.7608889 51.7929285,39.9497778 C51.9709658,40.6027937 52.1496389,41.2446984 52.3168668,41.8869206 C53.4248311,41.4986667 54.5219861,41.0827937 55.5921174,40.592 C55.8620347,40.467873 56.1106511,40.3221587 56.3592675,40.1764444 C56.2781969,39.8688254 56.1971264,39.5612063 56.1052464,39.2593016 C55.9755335,38.8758095 55.8299244,38.4983492 55.6458466,38.1310476 M87.4922699,74.7824762 C87.4057946,74.4262857 87.3196373,74.0646984 87.2977006,73.6491429 C85.1091134,70.4923175 83.217467,67.1793016 81.1802115,63.9789841 C80.5046235,62.9053333 79.856059,61.6640635 79.1159325,60.6926349 C78.4295351,59.8024762 77.354317,59.0307302 76.478437,58.1513651 C73.8415773,55.5069206 71.0368539,53.1434286 68.2915822,50.7313651 C70.3612659,46.6789841 72.2796178,42.2916825 74.5009512,38.4281905 C75.252205,37.1383492 76.2409479,35.767873 76.7594816,34.4780317 C77.1651523,33.4850159 77.3215708,32.2224762 77.6134248,31.0999365 C78.4778595,27.6358095 79.2074946,24.4085079 80.1428263,20.9551746 C80.6883835,20.5234286 81.207235,20.0700952 81.1802115,19.072 C80.3968474,18.980254 80.0236049,18.4783492 79.4888571,18.1383492 C78.0299049,18.823746 75.1387062,18.5377143 74.8792805,17.1993016 C74.5333794,15.3862857 77.1107873,15.2405714 77.3215708,14.0046984 C76.6625148,14.0262857 75.4683932,14.603746 75.1654118,14.1018413 C75.7761434,13.6485079 76.5598255,13.3624762 77.1381288,12.8770794 C75.9815221,11.900254 74.3225959,11.436127 72.9065635,10.7183492 C72.7123121,9.23993651 71.9934865,8.31168254 72.0583429,6.58501587 C72.2366981,6.10469841 72.5015286,5.85104762 72.6420509,5.20342857 C72.7339309,4.94438095 72.7339309,4.82025397 72.5555757,4.39422222 C72.1069852,4.37803175 71.7448701,4.46438095 71.4962537,4.32946032 C70.9990209,3.85453968 71.5070631,2.89930159 71.1179244,2.26247619 C70.9125457,2.93707937 70.8530939,3.75739683 70.4639552,4.23771429 C70.431527,3.7304127 70.2697038,3.35803175 70.0802212,3.01263492 C70.1829106,4.42120635 70.6315011,5.47866667 70.9341645,6.6767619 C69.8856519,6.50946032 69.4965132,6.98977778 68.5942456,6.96279365 C68.5942456,7.2488254 68.4915562,7.44311111 68.2915822,7.52374603 C66.1732561,8.24692063 63.6063397,8.52755556 61.7038839,9.4935873 C60.8502586,8.60850794 60.6340704,7.06533333 59.8395789,6.11549206 C60.1905667,7.54025397 61.0015903,8.652 61.428244,10.2545397 C64.2113486,9.48819048 66.4377687,8.17136508 69.4211653,7.61549206 C69.7076146,7.30279365 70.3990988,7.10311111 70.9341645,7.3351746 C70.9990209,7.84755556 71.3773502,8.4735873 71.1179244,9.02406349 C70.0373015,8.86755556 70.6855481,9.00787302 69.9991507,9.21834921 C69.7667484,9.09422222 69.7181061,9.4072381 69.3076665,9.46660317 C68.8374573,9.62311111 68.5942456,9.62311111 68.1510599,9.90374603 C67.6865732,10.1085079 67.7673259,10.152 67.3025213,10.2164444 C66.8971685,10.4053333 67.3727825,10.2164444 66.8971685,10.4053333 C66.4431734,10.4866032 66.4002537,10.5351746 65.957068,10.6859683 C65.2760753,10.8805714 65.5246916,10.8100952 64.9463883,10.9666032 C64.0654216,11.2094603 64.6004873,11.0583492 63.6766008,11.3066032 C62.3308295,11.5926349 63.5360785,11.2742222 62.2767825,11.6573968 C61.6933924,10.864381 61.1201758,10.060254 60.3962634,9.40184127 C60.1044094,9.66088889 60.0071247,8.94311111 59.9260542,8.27961905 C59.1423721,8.01485714 58.9099698,7.23263492 58.8832642,6.2072381 C58.6238384,6.16406349 58.2292951,6.80057143 57.7590858,6.86565079 C57.0294508,6.57422222 56.5051945,5.592 55.5056422,5.46279365 C54.6949366,5.33866667 53.4248311,5.77549206 52.4087468,5.92660317 C51.6199779,6.04533333 50.8471053,6.06692063 50.2150728,6.24501587 C45.2700866,6.71993651 28.2363672,9.47739683 25.118171,9.96279365 C28.3822942,9.67707937 46.8374508,7.47009524 50.9173664,6.55263492 C52.7225376,6.40692063 54.5976519,5.8888254 56.2565781,5.92660317 C56.4241239,6.16406349 56.5808603,6.41771429 56.5271312,6.86565079 C53.9761109,7.72374603 51.3119098,7.97739683 48.6368993,8.37644444 C47.0914719,8.59771429 42.2113421,9.59612698 41.2979471,9.77961905 C37.3477444,10.5621587 32.8678806,11.3875556 28.5066024,12.1269206 C27.2314102,12.3481905 25.9126624,12.5532698 24.6536843,12.7853333 C17.1147582,14.1558095 9.12215474,14.7386667 1.22683601,13.816127 C0.594485645,13.724381 0.351273966,13.8589841 0.227283698,13.9777143 C0.308036334,13.6431111 0.562057421,13.3142222 0.826887916,13.1685079 C1.79941671,12.7097778 2.97764217,12.2618413 4.13424882,12.0297778 L4.69633804,12.0297778 C4.9233356,11.8354921 4.34503228,11.9488254 4.13424882,11.9380317 C3.16140211,11.9110476 1.54571354,11.959619 0.843102028,11.9380317 C0.653937388,12.1916825 0.313441038,12.5586667 0.243179886,12.9742222 C0.216156367,13.0281905 0.0053729116,14.0481905 -3.17923763e-05,14.1018413 L-3.17923763e-05,14.1989841 C0.324250446,15.747873 0.551248013,17.3881905 1.40519124,18.424381 C4.14474031,18.4621587 6.65252295,19.2339048 9.21943942,19.2659683 C11.3053372,19.2929524 13.3966397,18.980254 15.4342131,18.8885079 C17.1093534,18.8129524 18.7953032,18.8399365 20.5085943,18.7050159 C23.491673,18.4621587 26.5504175,17.6904127 29.538583,17.1993016 C38.7529674,15.6993016 47.837321,14.0424762 56.4457427,12.2186667 C57.2780672,11.3500952 57.8942034,10.0815238 59.7314848,10.7183492 C60.4124775,12.1700952 60.9637573,13.7513651 61.5255286,15.3215238 C62.9091328,15.7421587 63.9306219,16.8269206 65.6598092,16.1688254 C64.8926592,12.6126349 68.1942975,12.299619 70.3612659,11.187873 C70.2477671,11.5440635 70.4423364,11.6735873 70.4639552,11.9380317 C72.3880298,11.9758095 72.1394135,14.204381 72.9933567,15.3215238 C71.1179244,14.636127 69.2157865,15.4024762 68.0159423,16.0716825 C67.5565424,16.319619 66.6164418,16.8215238 66.5137525,17.1993016 C66.302969,17.9332698 66.8215027,19.4818413 66.9731523,20.5827937 C67.1515075,21.7700952 67.5187095,23.0866032 67.454171,24.0526349 C67.3673778,25.2183492 66.6380607,26.4700952 66.3188652,27.4358095 C65.9084256,28.7040635 65.5949528,29.7672381 65.2922894,31.0027937 C62.7523964,33.3015238 60.6070469,35.9783492 57.8563705,38.0558095 C57.7425538,37.6669206 57.6888247,37.2085079 57.5969447,36.7929524 C57.2888766,37.0789841 56.9267614,37.3272381 56.5160039,37.5485079 C56.4943851,37.5593016 56.4727663,37.5700952 56.4511474,37.5862857 C56.3700769,37.6240635 56.294729,37.6669206 56.2079358,37.7104127 C56.294729,37.9208889 56.3592675,38.1475556 56.4025051,38.379619 C56.6024792,38.8326349 56.770025,39.2913651 56.8943332,39.7716825 C56.9591896,39.7285079 57.0132367,39.696127 57.061879,39.6583492 C57.2564483,39.480254 57.4564224,39.3075556 57.6509917,39.1186667 C57.791514,38.8973968 57.9266316,38.6764444 58.1374151,38.5199365 C58.3478806,39.0646984 58.1103916,39.3669206 57.7861093,39.6475556 C57.5699212,39.9066032 57.3267095,40.1494603 57.0402602,40.376127 C57.3483283,41.6926349 57.4564224,43.0688254 57.4239942,44.3532698 C53.8085651,47.0297778 48.7395886,47.9685079 44.3296681,48.2329524 C43.0328571,48.3031111 41.7681564,47.2186667 40.7523899,46.5170794 C39.893042,45.9180317 39.034012,45.2866032 38.1962829,44.644381 C38.1800688,44.6389841 38.1692594,44.6173968 38.15845,44.6066032 C37.0342715,43.8027937 36.0019731,42.7989841 35.7803802,41.3367619 C35.7752934,41.3148571 35.7752934,41.2986667 35.7641661,41.2773968 C35.7641661,41.2881905 35.7752934,41.2881905 35.7752934,41.2773968 C35.710437,40.8132698 35.7158417,40.3059683 35.8347452,39.7393016 C35.9100931,40.1386667 35.9425213,40.5650159 35.9752675,41.0021587 C36.0617427,41.2180317 36.1806462,41.4335873 36.2451848,41.7034286 C36.6018952,42.8691429 37.6125749,43.4735873 38.5256519,44.1586667 C39.893042,45.1948571 41.2658368,46.220254 42.7301937,47.1053333 C43.2922829,47.4288254 43.6976357,47.6716825 44.3137719,47.639619 L44.3137719,47.6339048 L44.3245813,47.639619 C44.7188068,46.484381 45.1187549,45.2704127 45.5241077,44.099619 C45.2754913,44.1212063 45.0268749,44.164381 44.7893859,44.1751746 C43.1139277,44.272 41.3682083,44.9897778 40.0335643,43.8621587 C39.6228068,43.6624762 39.3309528,43.360254 39.2282634,42.9339048 C39.8552091,42.9770794 40.1740866,43.3332698 40.5253924,43.6459683 C40.7307711,43.7164444 40.9361499,43.7704127 41.0874816,43.8081905 C41.2334086,43.8459683 41.3952318,43.8567619 41.5465635,43.8780317 C42.5086008,43.8780317 43.400377,43.8135873 44.2813437,43.7326349 C44.3245813,43.7218413 44.3620964,43.7164444 44.4002472,43.7164444 C44.8647338,43.6300952 45.2971101,43.5815238 45.718677,43.5167619 C45.9672934,42.7612063 46.2321239,41.9894603 46.4969544,41.2234286 C46.5293826,41.1424762 46.5398741,41.0723175 46.5668976,41.0021587 C45.9726981,41.1424762 45.3781807,41.2666032 44.7893859,41.396127 C43.0328571,41.8656508 41.2712415,42.307873 39.4988165,42.7234286 C39.1417882,42.7989841 38.8283153,42.7989841 38.5256519,42.739619 C38.5151604,42.7450159 38.487819,42.7504127 38.4773275,42.7504127 C38.4662002,42.7450159 38.450304,42.7342222 38.450304,42.7342222 C38.0395465,42.6262857 37.682836,42.3834286 37.3801726,41.9193016 C37.3477444,41.8656508 37.2774832,41.6605714 37.2018174,41.4069206 C36.8288928,40.7970794 36.6343234,40.0523175 36.8775351,39.0862857 C36.8126787,40.5866032 37.828763,42.0113651 38.8175059,42.2434286 C39.2339861,42.2485079 39.7038774,42.076127 40.0443737,42.000254 C40.2983948,41.9462857 40.5524159,41.8815238 40.7956276,41.8167619 C40.8115238,41.8167619 40.8172464,41.8113651 40.8280558,41.8113651 C40.8280558,41.8113651 40.8388652,41.8059683 40.8496746,41.8059683 C42.6710599,41.363746 44.4539763,40.899619 46.2537427,40.3977143 C48.7233745,39.7069206 51.198411,38.983746 53.6139958,38.0881905 C53.884231,37.9856508 54.1598709,37.872 54.4409155,37.764381 C54.6354848,37.6834286 54.705746,37.6564444 54.7922212,37.6240635 C55.1702326,37.4729524 55.5434751,37.300254 55.9052723,37.1275556 C55.9218044,37.1059683 55.9322959,37.1059683 55.9434232,37.0951746 C56.2133405,36.9494603 56.4241239,36.836127 56.6673356,36.712 C56.8402861,36.5986667 57.0294508,36.496127 57.2024013,36.3666032 C57.2780672,36.3018413 57.3483283,36.2532698 57.3969706,36.2262857 C57.4239942,35.6434286 57.3915659,35.767873 57.207806,35.2926349 C56.8781191,35.3739048 56.3646722,35.692 56.0353032,35.7516825 C54.9759812,35.983746 55.2462164,35.9567619 54.3652496,36.0754921 C54.1328474,35.1310476 53.5815676,34.4888254 53.3437606,33.5497778 C54.6246754,32.7891429 56.294729,32.4275556 56.3484581,30.4472381 C54.6625084,29.8964444 53.7869463,29.1681905 52.2361142,28.4881905 C51.9655611,28.1373968 51.2740769,27.0313651 50.906557,26.3027937 C50.2688019,25.2773968 50.4579666,25.736127 49.5773178,24.624381 C48.8909204,23.7450159 48.0153583,22.876127 47.2857233,22.5145397 C46.6266673,22.1907302 45.5511312,21.8399365 44.6809739,21.6135873 C43.8111345,21.3812063 42.9355724,20.9659683 42.049201,20.9551746 C41.4441921,20.944381 40.66051,21.1980317 39.9795173,21.3329524 C38.0233324,21.7212063 37.445029,21.9910476 36.2073518,22.9354921 C35.6726041,23.3456508 34.9483737,23.8151746 34.6186868,24.2469206 C34.4727598,24.4354921 34.0782164,24.8888254 33.9542261,25.0885079 C33.683673,25.5526349 33.4296519,25.736127 33.2026543,26.1516825 C32.7922148,26.9126349 32.8084289,27.004381 32.5435984,27.5332698 C31.9058433,28.8335873 31.3167306,30.1824762 31.0627095,31.8015238 C31.0951377,36.3666032 33.7323153,38.1799365 34.6186868,41.8977143 C34.6781385,41.396127 34.3322375,40.807873 34.6186868,40.4031111 C34.9213502,40.8672381 34.8132561,41.7739048 34.8997314,42.4697778 C35.6023429,43.2685079 36.8126787,43.5653333 37.1639844,44.7199365 C36.277613,44.5580317 35.56451,43.2091429 34.8673032,43.1659683 C35.9752675,44.1050159 36.9856292,45.1466032 38.1962829,45.756127 C38.3746381,45.8424762 38.650278,45.756127 38.8553388,45.847873 C39.8768279,46.3173968 40.6497006,47.5475556 41.5739049,47.8227937 C42.0059633,47.9469206 42.1086527,47.7634286 42.4275303,48.2221587 C40.3037995,48.583746 39.6768539,45.7345397 38.3962569,46.3227937 C37.445029,46.7545397 37.2288409,46.6142222 36.1154719,46.7923175 C35.9425213,47.6716825 37.0666998,48.9723175 37.2288409,49.8034286 C37.9638806,50.8554921 37.2504597,51.3735873 37.8882148,52.5281905 C38.5526754,53.1164444 38.9472188,53.2729524 39.509308,53.6453333 C39.8335903,55.8685079 39.61772,58.232 40.3524418,60.412 C41.1844483,62.0310476 43.0869041,63.1100952 44.4056519,64.5348571 C45.8375805,66.1053333 47.7937655,67.7726349 48.9125392,68.8681905 C52.7870761,72.623746 56.5051945,75.764381 60.4935481,79.3799365 C61.4985051,80.2973968 63.9252172,82.0186667 64.4329414,83.1412063 C64.8869366,84.1123175 65.0598871,85.423746 65.3679552,86.6164444 C65.6976422,87.7869206 66.2053664,89.0608889 66.3188652,90.0913651 C66.5353713,91.9529524 65.8489739,93.7285079 66.3188652,95.7250159 C66.4002537,96.0434286 66.594823,96.3942222 66.8488441,96.7554921 C74.5384662,91.7964444 81.8125619,85.3481905 88.0975968,77.5507302 C88.5569966,76.9732698 88.9947776,76.3958095 89.4376454,75.8129524 C88.9187938,75.3056508 88.3245943,74.9066032 87.4922699,74.7824762 M46.0105311,44.4608889 C45.994317,44.487873 45.9889122,44.5256508 45.9726981,44.5580317 C45.6916535,45.3891429 45.4106089,46.2148571 45.1295643,47.0513651 C45.0484938,47.2888254 45.0052561,47.4669206 44.9620185,47.5745397 C46.7455708,47.4288254 48.5125911,47.1754921 50.2417784,46.7599365 C50.5714654,46.6789841 50.8795335,46.5818413 51.198411,46.484381 C51.6307873,46.3066032 52.1388295,46.0799365 52.4847306,45.9504127 C52.4573891,45.6805714 52.4468976,45.4053333 52.4414929,45.3135873 C52.3384856,44.4126349 52.1763445,43.5221587 51.9709658,42.6424762 C51.8520623,42.6859683 51.7226673,42.7234286 51.6037638,42.7612063 C50.6092983,43.0850159 49.609746,43.3710476 48.5936616,43.6031111 C47.782956,43.8135873 46.9671637,44.0024762 46.1888863,44.0672381 C46.1240298,44.2018413 46.0699828,44.3316825 46.0105311,44.4608889 M61.8930485,2.64025397 C61.7363121,1.63644444 62.449733,1.52311111 63.0118222,1.24279365 C63.2063916,1.232 63.4063656,1.22120635 63.6222358,1.19961905 C64.1032545,1.26977778 64.3572756,1.84184127 64.6221061,2.07898413 C64.6761531,1.60977778 64.9301742,1.35612698 65.1571718,1.08088889 C65.5246916,1.04311111 65.9084256,0.994539683 66.2813502,0.951365079 C66.8596535,1.04311111 66.816098,1.7551746 67.2646884,1.98215873 C67.1947452,0.805650794 68.896909,0.525015873 69.610012,1.232 C69.6046073,0.892 69.4698076,0.686920635 69.4211653,0.379301587 L61.2556114,1.22660317 C60.7854021,1.21580952 60.3800493,1.232 60.2016941,1.32914286 C61.2123737,1.31295238 61.3633875,2.16565079 61.8930485,2.64025397 M72.1394135,0.444380952 C72.6579471,0.42247619 73.1551799,0.465650794 73.6902456,0.578984127 C73.755102,0.595174603 73.8415773,0.595174603 73.8956243,0.605968254 C74.0955984,0.69231746 74.1118125,0.967555556 74.4090712,0.951365079 C74.7333534,0.730095238 75.2789106,0.746285714 75.8142942,0.76247619 C76.2139244,0.967555556 76.3652561,1.41549206 76.6733242,1.69612698 C76.8729804,0.924380952 77.9971588,0.713904762 78.6457233,1.13485714 C79.0780996,1.42088889 78.8460152,1.90088889 79.2996925,2.07898413 C79.1966852,1.42628571 79.6077606,1.28565079 80.002304,1.14565079 C80.3590144,1.19961905 80.4238709,1.30755556 80.5856941,1.47485714 C80.6127176,1.5072381 80.7751766,1.90088889 80.7751766,1.90088889 C80.9481272,2.49993651 81.0937363,3.1151746 81.3102423,3.70342857 C81.4666608,4.12977778 81.5207079,4.64787302 81.6558255,4.89580952 L81.6504208,4.8904127 L81.6504208,5.36533333 C81.3423526,5.5272381 80.9424045,5.592 80.5262423,5.65136508 C80.6397411,6.00215873 80.9207857,6.18565079 80.9910469,6.58501587 C80.2293015,7.17295238 79.2024078,6.27739683 78.4511539,6.58501587 C78.4778595,7.2488254 79.0618855,7.35644444 79.2074946,7.90152381 C78.7159844,8.79771429 77.6785992,8.03104762 76.8567663,7.99866667 C76.478437,7.97739683 76.1706868,8.25231746 75.8142942,8.18247619 C75.4629885,8.10660317 75.1546024,7.47009524 74.8792805,7.80469841 C74.797892,8.15549206 75.9061742,8.34406349 75.7275011,8.8351746 C77.1651523,8.75422222 78.1325943,10.0386667 79.4888571,10.1573968 C79.8290355,10.1789841 80.2668165,10.0008889 80.6127176,10.060254 C81.6666349,10.2383492 82.650291,12.0189841 82.7583851,14.7548571 C82.7583851,14.1288254 83.2498952,10.5027937 83.2498952,9.86596825 C83.8987776,9.612 84.330836,9.12660317 84.9469723,8.8351746 C85.0334475,7.7072381 85.1091134,6.5472381 85.2226122,5.46279365 C84.1686949,5.27898413 83.0499212,5.13898413 82.0017265,4.94438095 C81.7206819,4.0272381 81.2558774,1.54501587 80.202278,1.06469841 C80.2130874,1.05390476 80.2235789,1.04850794 80.2455157,1.04311111 C79.3699536,0.557396825 77.9539212,0.535809524 77.0030112,0.48184127 C76.3382326,0.444380952 75.6683672,0.438666667 75.0140801,0.454857143 C74.7117346,0.465650794 74.0955984,0.605968254 73.8091491,0.498031746 C73.1551799,0.244380952 72.7552318,0.109460317 72.0583429,0.195809524 C71.8364321,0.303746032 71.7718936,0.390095238 71.7556795,0.438666667 C71.6151572,0.584380952 71.4259925,0.784063492 71.6800136,0.854222222 C71.7229333,0.616761905 71.9340347,0.552 72.1394135,0.444380952" id="Fill-51" fill="#FFFFFF" mask="url(#mask-4)"></path>
                    </g>
                    <path d="M381.642521,11.4637143 C381.717869,11.4637143 381.799257,11.4691111 381.88001,11.4799048 C381.96108,11.4853016 382.042469,11.4960952 382.123539,11.4960952 C382.761294,11.4960952 383.301447,11.3611746 383.755442,11.0916508 C384.198628,10.8218095 384.425625,10.330381 384.425625,9.61292063 C384.425625,9.25673016 384.365856,8.98149206 384.24727,8.78720635 C384.122962,8.59831746 383.966543,8.458 383.766251,8.37165079 C383.566277,8.27990476 383.33928,8.23133333 383.074449,8.22593651 C382.820428,8.21514286 382.550193,8.20974603 382.269466,8.20974603 L381.642521,8.20974603 L381.642521,11.4637143 Z M379.880587,15.7049841 C379.977872,15.0091111 380.032237,14.2967302 380.043046,13.5681587 C380.053856,12.8453016 380.05926,12.1329206 380.05926,11.4370476 C380.05926,10.7354603 380.053856,10.0284762 380.043046,9.29990476 C380.032237,8.57133333 379.977872,7.85895238 379.880587,7.16307937 L383.074449,7.16307937 C383.496016,7.16307937 383.901051,7.19006349 384.274294,7.23831746 C384.652305,7.28720635 384.987397,7.38974603 385.279251,7.55165079 C385.5657,7.71355556 385.798102,7.93990476 385.981862,8.24212698 C386.160535,8.53895238 386.252097,8.93831746 386.252097,9.4348254 C386.252097,10.249746 385.981862,10.886254 385.441392,11.3449841 C384.906326,11.8037143 384.252675,12.0519683 383.496016,12.089746 C383.858131,12.1329206 384.160477,12.2408571 384.409093,12.4189524 C384.65771,12.5970476 384.895517,12.8395873 385.111705,13.1367302 C385.4309,13.5573651 385.74946,13.9729206 386.068337,14.393873 C386.39262,14.8094286 386.695601,15.2465714 386.997946,15.7049841 L384.755312,15.7049841 C384.495886,15.2681587 384.236461,14.8418095 383.977035,14.4208571 C383.717609,14.0053016 383.42035,13.6059365 383.074449,13.2230794 C382.917713,13.050381 382.761294,12.8776825 382.615367,12.7208571 C382.464036,12.5592698 382.258339,12.4783175 382.004636,12.4783175 L381.642521,12.4783175 C381.663822,13.018 381.674949,13.5573651 381.685758,14.0916508 C381.69625,14.6313333 381.739805,15.1710159 381.820876,15.7049841 L379.880587,15.7049841 Z M380.161632,5.458 C379.291474,5.81926984 378.535452,6.31038095 377.886887,6.9364127 C377.238005,7.56784127 376.729963,8.30688889 376.362761,9.1595873 C375.989836,10.0068889 375.806076,10.9132381 375.806076,11.8846667 C375.806076,12.9046667 375.984114,13.8433968 376.330333,14.6960952 C376.681638,15.5433968 377.168062,16.2824444 377.794371,16.8976825 C378.42704,17.5183175 379.177976,17.9986349 380.05926,18.3332381 C380.934187,18.6732381 381.901629,18.8402222 382.960951,18.8402222 C383.977035,18.8402222 384.912049,18.6624444 385.771079,18.289746 C386.630427,17.9230794 387.371189,17.4211746 387.997499,16.7843492 C388.624762,16.1475238 389.11659,15.4030794 389.467578,14.550381 C389.813161,13.6976825 389.986112,12.7913333 389.986112,11.8253016 C389.986112,10.8160952 389.813161,9.89895238 389.467578,9.05704762 C389.11659,8.21514286 388.635254,7.49196825 388.013713,6.87704762 C387.397895,6.27260317 386.65745,5.79228571 385.798102,5.44688889 C384.939072,5.09609524 383.998654,4.92339683 382.960951,4.92339683 C381.96108,4.92339683 381.026702,5.10149206 380.161632,5.458 Z M386.711497,4.34085714 C387.781629,4.72403175 388.70011,5.2795873 389.467578,5.98657143 C390.234728,6.69355556 390.834968,7.55165079 391.261622,8.54974603 C391.688594,9.54815873 391.904782,10.670381 391.904782,11.9116508 C391.904782,13.1367302 391.650761,14.253873 391.143036,15.2627619 C390.634676,16.2719683 389.954002,17.129746 389.105781,17.842127 C388.262329,18.5491111 387.278991,19.093873 386.160535,19.4878413 C385.046848,19.8710159 383.874345,20.0653016 382.658287,20.0653016 C381.404714,20.0653016 380.237298,19.8710159 379.156675,19.4878413 C378.081139,19.093873 377.157252,18.5491111 376.37357,17.842127 C375.600697,17.129746 374.989966,16.2773651 374.552185,15.2789524 C374.114722,14.2751429 373.893129,13.1583175 373.893129,11.9116508 C373.893129,10.670381 374.152237,9.54815873 374.671088,8.54974603 C375.18994,7.55165079 375.876337,6.69355556 376.735367,5.98657143 C377.595033,5.2795873 378.589181,4.72403175 379.713041,4.34085714 C380.842624,3.95196825 382.010041,3.758 383.225781,3.758 C384.484759,3.758 385.64677,3.95196825 386.711497,4.34085714 Z" id="Fill-54" fill="#FFFFFF"></path>
                </g>
            </g>
        </g>
    </g>
</svg>